<svg width="143" height="43" viewBox="0 0 143 43" fill="none" xmlns="http://www.w3.org/2000/svg">
<path fill-rule="evenodd" clip-rule="evenodd" d="M137.702 43H5.29824C2.37816 43 0 40.5766 0 37.625V5.375C0 2.41272 2.37816 0 5.29824 0H137.702C140.619 0 143 2.41272 143 5.375V37.625C143 40.5766 140.619 43 137.702 43Z" fill="black"/>
<path fill-rule="evenodd" clip-rule="evenodd" d="M137.702 0.860536C140.151 0.860536 142.156 2.8899 142.156 5.375V37.625C142.156 40.1101 140.164 42.1395 137.702 42.1395H5.29824C2.84906 42.1395 0.844457 40.1101 0.844457 37.625V5.375C0.844457 2.8899 2.8359 0.860536 5.29824 0.860536H137.702ZM137.702 0H5.29824C2.37816 0 0 2.42344 0 5.375V37.625C0 40.5873 2.37816 43 5.29824 43H137.702C140.619 43 143 40.5873 143 37.625V5.375C143 2.42344 140.619 0 137.702 0Z" fill="#A6A6A6"/>
<path d="M75.3325 14.2243C74.3776 14.2243 73.5726 13.8838 72.9359 13.2136C72.3046 12.5622 71.952 11.6641 71.9678 10.7473C71.9678 9.76877 72.294 8.94041 72.9359 8.28361C73.5699 7.61341 74.3749 7.27295 75.3299 7.27295C76.2743 7.27295 77.0793 7.61341 77.7264 8.28361C78.3683 8.96185 78.6945 9.79022 78.6945 10.7473C78.684 11.7284 78.3578 12.5568 77.7264 13.2109C77.0924 13.8865 76.2874 14.2243 75.3325 14.2243ZM46.9184 14.2243C45.9845 14.2243 45.1742 13.8892 44.5113 13.227C43.8536 12.5675 43.5195 11.7338 43.5195 10.7499C43.5195 9.76609 43.8536 8.93236 44.5113 8.27289C45.1611 7.61073 45.9713 7.27563 46.9184 7.27563C47.3814 7.27563 47.8312 7.36946 48.2627 7.55979C48.6862 7.74477 49.0308 7.99676 49.286 8.30506L49.3491 8.3828L48.6362 9.09589L48.5626 9.00743C48.1601 8.51952 47.6208 8.28093 46.9079 8.28093C46.2712 8.28093 45.7162 8.51148 45.2584 8.96721C44.798 9.42563 44.5639 10.0261 44.5639 10.7526C44.5639 11.4791 44.798 12.0796 45.2584 12.538C45.7162 12.9938 46.2712 13.2243 46.9079 13.2243C47.5866 13.2243 48.1574 12.9938 48.602 12.538C48.8651 12.27 49.0282 11.8946 49.0861 11.4201H46.8V10.4175H50.0673L50.0805 10.5087C50.1042 10.6776 50.1278 10.8518 50.1278 11.0127C50.1278 11.9375 49.8542 12.6855 49.3123 13.2377C48.6967 13.8918 47.8917 14.2243 46.9184 14.2243ZM84.6978 14.0822H83.6902L80.6044 9.05032L80.6307 9.95643V14.0795H79.6231V7.41771H80.7728L80.8043 7.46865L83.706 12.2083L83.6797 11.3049V7.41771H84.6978V14.0822ZM67.7614 14.0822H66.7406V8.42033H64.9702V7.41771H69.5292V8.42033H67.7587V14.0822H67.7614ZM64.1389 14.0822H63.1208V7.41771H64.1389V14.0822ZM58.4171 14.0822H57.3991V8.42033H55.6286V7.41771H60.1876V8.42033H58.4171V14.0822ZM54.9841 14.0715H51.0801V7.41771H54.9841V8.42033H52.1008V10.2486H54.7026V11.2405H52.1008V13.0688H54.9841V14.0715ZM73.683 12.5246C74.1382 12.9884 74.6906 13.2216 75.3325 13.2216C75.9928 13.2216 76.5321 12.9938 76.9819 12.5246C77.4291 12.0689 77.6554 11.4711 77.6554 10.7499C77.6554 10.0288 77.4291 9.42831 76.9846 8.97526C76.5294 8.51148 75.9744 8.27825 75.3351 8.27825C74.6748 8.27825 74.1355 8.50612 73.6883 8.97526C73.2411 9.43099 73.0148 10.0288 73.0148 10.7499C73.0148 11.4711 73.2385 12.0716 73.683 12.5246Z" fill="white"/>
<path fill-rule="evenodd" clip-rule="evenodd" d="M71.8741 23.3871C69.388 23.3871 67.3729 25.3093 67.3729 27.9606C67.3729 30.5877 69.4012 32.534 71.8741 32.534C74.3601 32.534 76.3752 30.5985 76.3752 27.9606C76.3752 25.3093 74.3601 23.3871 71.8741 23.3871ZM71.8741 30.7218C70.514 30.7218 69.3433 29.5744 69.3433 27.9498C69.3433 26.3011 70.5166 25.1779 71.8741 25.1779C73.2341 25.1779 74.4048 26.3011 74.4048 27.9498C74.4074 29.5851 73.2341 30.7218 71.8741 30.7218ZM62.0536 23.3871C59.5676 23.3871 57.5525 25.3093 57.5525 27.9606C57.5525 30.5877 59.5807 32.534 62.0536 32.534C64.5396 32.534 66.5548 30.5985 66.5548 27.9606C66.5548 25.3093 64.537 23.3871 62.0536 23.3871ZM62.0536 30.7218C60.6935 30.7218 59.5229 29.5744 59.5229 27.9498C59.5229 26.3011 60.6962 25.1779 62.0536 25.1779C63.4137 25.1779 64.5844 26.3011 64.5844 27.9498C64.5844 29.5851 63.4137 30.7218 62.0536 30.7218ZM50.368 24.7838V26.7194H54.927C54.7876 27.8051 54.4351 28.6066 53.8958 29.1562C53.2276 29.8371 52.1963 30.577 50.3785 30.577C47.5768 30.577 45.3854 28.2715 45.3854 25.4165C45.3854 22.5614 47.5768 20.256 50.3785 20.256C51.8912 20.256 52.9934 20.8645 53.8116 21.6419L55.1585 20.2694C54.022 19.1595 52.5094 18.3097 50.389 18.3097C46.5456 18.3097 43.3203 21.4998 43.3203 25.4058C43.3203 29.3224 46.5429 32.5018 50.389 32.5018C52.4647 32.5018 54.022 31.8102 55.2532 30.5073C56.5081 29.2286 56.9053 27.4244 56.9053 25.9687C56.9053 25.5157 56.8711 25.1082 56.8001 24.7624H50.3654C50.368 24.7597 50.368 24.7838 50.368 24.7838ZM98.1654 26.2904C97.7892 25.2637 96.6527 23.3764 94.3219 23.3764C92.0121 23.3764 90.0917 25.2288 90.0917 27.9498C90.0917 30.518 91.9911 32.5233 94.5455 32.5233C96.5975 32.5233 97.7918 31.2445 98.2838 30.4939L96.7606 29.4538C96.2555 30.2178 95.5531 30.7191 94.556 30.7191C93.5485 30.7191 92.8434 30.2526 92.3752 29.3331L98.3758 26.7998C98.3758 26.8025 98.1654 26.2904 98.1654 26.2904ZM92.0463 27.8185C91.999 26.0518 93.3933 25.1538 94.3903 25.1538C95.1769 25.1538 95.8319 25.5478 96.0555 26.1215L92.0463 27.8185ZM87.1716 32.2498H89.142V18.8137H87.1716V32.2498ZM83.9359 24.4031H83.8648C83.4202 23.8643 82.5758 23.3764 81.4972 23.3764C79.2585 23.3764 77.196 25.3843 77.196 27.9632C77.196 30.5314 79.2479 32.5152 81.4972 32.5152C82.5626 32.5152 83.4202 32.0247 83.8648 31.4751H83.9359V32.1319C83.9359 33.8771 83.0204 34.818 81.5445 34.818C80.337 34.818 79.5873 33.9334 79.2821 33.1935L77.5695 33.9227C78.0615 35.129 79.3742 36.6222 81.5419 36.6222C83.8517 36.6222 85.8089 35.2362 85.8089 31.8558V23.6498H83.9464V24.4031C83.949 24.4031 83.9359 24.4031 83.9359 24.4031ZM81.6735 30.7218C80.3134 30.7218 79.1769 29.5637 79.1769 27.9632C79.1769 26.3494 80.3134 25.1806 81.6735 25.1806C83.0204 25.1806 84.0648 26.3628 84.0648 27.9632C84.0779 29.5637 83.023 30.7218 81.6735 30.7218ZM107.391 18.8137H102.68V32.2498H104.65V27.1617H107.394C109.575 27.1617 111.719 25.5505 111.719 22.993C111.719 20.4356 109.583 18.8137 107.391 18.8137ZM107.449 25.2851H104.647V20.6742H107.449C108.925 20.6742 109.759 21.9154 109.759 22.9796C109.759 24.0332 108.914 25.2851 107.449 25.2851ZM119.616 23.363C118.185 23.363 116.709 24.0091 116.099 25.4165L117.846 26.1564C118.222 25.4165 118.911 25.1645 119.64 25.1645C120.661 25.1645 121.692 25.7864 121.716 26.8963V27.0384C121.363 26.8346 120.59 26.5237 119.664 26.5237C117.777 26.5237 115.865 27.5745 115.865 29.5449C115.865 31.3491 117.412 32.5072 119.135 32.5072C120.458 32.5072 121.187 31.8987 121.642 31.1936H121.713V32.2338H123.612V27.0866C123.612 24.69 121.865 23.363 119.616 23.363ZM119.369 30.7218C118.724 30.7218 117.822 30.4001 117.822 29.5744C117.822 28.5343 118.948 28.1402 119.908 28.1402C120.776 28.1402 121.187 28.3305 121.702 28.5932C121.56 29.7996 120.561 30.7111 119.369 30.7218ZM130.542 23.6498L128.279 29.4779H128.208L125.864 23.6498H123.744L127.261 31.7968L125.256 36.3247H127.308L132.72 23.6498H130.542ZM112.805 32.2498H114.776V18.8137H112.805V32.2498Z" fill="white"/>
<path fill-rule="evenodd" clip-rule="evenodd" d="M11.0068 8.09863C10.7016 8.43373 10.5254 8.94576 10.5254 9.61596V33.3866C10.5254 34.0568 10.7016 34.5688 11.0173 34.8905L11.0989 34.9629L24.1682 21.6447V21.3471L11.0884 8.02625L11.0068 8.09863Z" fill="url(#paint0_linear)"/>
<path fill-rule="evenodd" clip-rule="evenodd" d="M28.5173 26.0976L24.1582 21.6555V21.3446L28.5173 16.9025L28.612 16.9614L33.7682 19.9479C35.2441 20.795 35.2441 22.1944 33.7682 23.0522L28.612 26.0386L28.5173 26.0976Z" fill="url(#paint1_linear)"/>
<path fill-rule="evenodd" clip-rule="evenodd" d="M28.6125 26.0386L24.1587 21.5L11.0078 34.9013C11.4892 35.4267 12.2969 35.4857 13.1992 34.9737L28.6125 26.0386Z" fill="url(#paint2_linear)"/>
<path fill-rule="evenodd" clip-rule="evenodd" d="M28.6125 16.9614L13.1992 8.03968C12.2969 7.51425 11.4866 7.58663 11.0078 8.11206L24.1587 21.5L28.6125 16.9614Z" fill="url(#paint3_linear)"/>
<path opacity="0.2" fill-rule="evenodd" clip-rule="evenodd" d="M28.5171 25.9423L13.209 34.805C12.354 35.3063 11.5911 35.2714 11.0991 34.8157L11.0176 34.8988L11.0991 34.9712C11.5911 35.4242 12.354 35.4617 13.209 34.9604L28.6224 26.0388L28.5171 25.9423Z" fill="black"/>
<path opacity="0.12" fill-rule="evenodd" clip-rule="evenodd" d="M33.768 22.8967L28.5039 25.9421L28.5986 26.0386L33.7548 23.0522C34.494 22.6233 34.8571 22.0603 34.8571 21.5C34.8123 22.0147 34.4362 22.5026 33.768 22.8967Z" fill="black"/>
<path opacity="0.25" fill-rule="evenodd" clip-rule="evenodd" d="M13.1982 8.19521L33.7677 20.1033C34.4359 20.4867 34.8121 20.988 34.87 21.5C34.87 20.9397 34.5069 20.3768 33.7677 19.9478L13.1982 8.03973C11.7224 7.17919 10.5254 7.89764 10.5254 9.61604V9.77152C10.5254 8.05045 11.7224 7.3454 13.1982 8.19521Z" fill="white"/>
<defs>
<linearGradient id="paint0_linear" x1="22.9959" y1="9.3595" x2="2.00959" y2="14.8469" gradientUnits="userSpaceOnUse">
<stop stop-color="#00A0FF"/>
<stop offset="0.00657" stop-color="#00A1FF"/>
<stop offset="0.2601" stop-color="#00BEFF"/>
<stop offset="0.5122" stop-color="#00D2FF"/>
<stop offset="0.7604" stop-color="#00DFFF"/>
<stop offset="1" stop-color="#00E3FF"/>
</linearGradient>
<linearGradient id="paint1_linear" x1="35.6929" y1="21.5001" x2="10.1671" y2="21.5001" gradientUnits="userSpaceOnUse">
<stop stop-color="#FFE000"/>
<stop offset="0.4087" stop-color="#FFBD00"/>
<stop offset="0.7754" stop-color="#FFA500"/>
<stop offset="1" stop-color="#FF9C00"/>
</linearGradient>
<linearGradient id="paint2_linear" x1="26.1907" y1="23.9696" x2="8.91153" y2="52.5085" gradientUnits="userSpaceOnUse">
<stop stop-color="#FF3A44"/>
<stop offset="1" stop-color="#C31162"/>
</linearGradient>
<linearGradient id="paint3_linear" x1="7.69627" y1="0.192168" x2="15.4053" y2="12.9383" gradientUnits="userSpaceOnUse">
<stop stop-color="#32A071"/>
<stop offset="0.0685" stop-color="#2DA771"/>
<stop offset="0.4762" stop-color="#15CF74"/>
<stop offset="0.8009" stop-color="#06E775"/>
<stop offset="1" stop-color="#00F076"/>
</linearGradient>
</defs>
</svg>
