<svg width="127" height="43" viewBox="0 0 127 43" fill="none" xmlns="http://www.w3.org/2000/svg">
<g clip-path="url(#clip0)">
<path d="M116.887 1.76797e-05H10.1192C9.73002 1.76797e-05 9.34551 1.76797e-05 8.95736 0.00216768C8.63244 0.00431768 8.31011 0.0105634 7.98207 0.0158202C7.26942 0.0243146 6.55844 0.0878197 5.85532 0.205783C5.15319 0.326315 4.47305 0.553552 3.83791 0.879808C3.20355 1.20882 2.62391 1.63635 2.12003 2.14687C1.6135 2.65595 1.19128 3.24439 0.86958 3.88954C0.546997 4.53341 0.323316 5.22338 0.206264 5.93561C0.0880999 6.64694 0.0245144 7.36648 0.0160788 8.08776C0.00622986 8.41735 0.00518978 8.74804 0 9.07768V33.9255C0.00518978 34.2593 0.00622986 34.5827 0.0160788 34.9166C0.024517 35.6378 0.0881025 36.3573 0.206264 37.0686C0.322993 37.7812 0.546687 38.4716 0.86958 39.1157C1.19113 39.7588 1.61342 40.3448 2.12003 40.8511C2.622 41.3639 3.20201 41.7917 3.83791 42.1182C4.47305 42.4453 5.15311 42.6739 5.85532 42.7963C6.55856 42.9133 7.26946 42.9769 7.98207 42.9864C8.31011 42.9937 8.63244 42.9979 8.95736 42.9979C9.3455 43 9.73004 43 10.1192 43H116.887C117.268 43 117.656 43 118.037 42.9979C118.36 42.9979 118.692 42.9937 119.015 42.9864C119.727 42.9774 120.436 42.9138 121.138 42.7963C121.842 42.673 122.525 42.4445 123.163 42.1182C123.798 41.7915 124.378 41.3637 124.88 40.8511C125.385 40.3429 125.808 39.7572 126.134 39.1157C126.454 38.4711 126.676 37.7808 126.791 37.0686C126.909 36.3572 126.975 35.6379 126.988 34.9166C126.992 34.5827 126.992 34.2593 126.992 33.9255C127 33.535 127 33.1466 127 32.7497V10.2514C127 9.85768 127 9.46715 126.992 9.07768C126.992 8.74804 126.992 8.41735 126.988 8.08772C126.975 7.36637 126.909 6.647 126.791 5.93557C126.675 5.22375 126.454 4.53383 126.134 3.8895C125.478 2.59635 124.44 1.54374 123.163 0.879712C122.525 0.554253 121.842 0.327076 121.138 0.205687C120.436 0.0872032 119.727 0.023676 119.015 0.0156697C118.692 0.0104237 118.36 0.00412418 118.037 0.00202793C117.656 -0.00012207 117.268 -0.00012207 116.887 -0.00012207V1.76797e-05Z" fill="#A6A6A6"/>
<path d="M8.96179 42.0592C8.63843 42.0592 8.32288 42.055 8.00206 42.0477C7.33745 42.0389 6.6744 41.9803 6.01833 41.8723C5.40659 41.7656 4.81397 41.5671 4.26003 41.2834C3.71117 41.0019 3.21056 40.633 2.77739 40.1905C2.33794 39.7533 1.97209 39.2462 1.69431 38.6893C1.41348 38.1288 1.21913 37.528 1.11803 36.9078C1.00884 36.2414 0.949771 35.5676 0.941319 34.8922C0.93459 34.6654 0.925781 33.9106 0.925781 33.9106V9.07747C0.925781 9.07747 0.935163 8.33421 0.941372 8.11584C0.949465 7.44147 1.00819 6.76871 1.11705 6.10337C1.21834 5.4815 1.41284 4.87896 1.69383 4.31661C1.97058 3.76009 2.3344 3.2526 2.7712 2.81381C3.2075 2.37085 3.70971 1.99995 4.25951 1.71466C4.81218 1.43181 5.40367 1.23469 6.01418 1.12992C6.6724 1.02088 7.33776 0.961925 8.00467 0.953555L8.96231 0.94043H118.031L119 0.954082C119.661 0.962036 120.32 1.02046 120.972 1.12887C121.589 1.23495 122.187 1.43344 122.746 1.71781C123.847 2.29276 124.743 3.20241 125.309 4.31923C125.585 4.8777 125.777 5.47533 125.877 6.09182C125.987 6.76262 126.049 7.44067 126.061 8.12057C126.064 8.42501 126.064 8.75203 126.064 9.07747C126.073 9.4806 126.073 9.8643 126.073 10.2511V32.7495C126.073 33.14 126.073 33.5211 126.064 33.9053C126.064 34.2549 126.064 34.5751 126.06 34.9047C126.048 35.5725 125.987 36.2385 125.879 36.8973C125.78 37.5219 125.587 38.1274 125.306 38.6925C125.026 39.2434 124.662 39.7461 124.228 40.1821C123.794 40.6269 123.293 40.9981 122.743 41.2813C122.185 41.5673 121.588 41.7665 120.972 41.8723C120.316 41.9809 119.653 42.0395 118.989 42.0477C118.678 42.055 118.352 42.0592 118.036 42.0592L116.886 42.0613L8.96179 42.0592Z" fill="black"/>
<path d="M26.2865 21.8234C26.2979 20.9261 26.5332 20.0463 26.9705 19.2659C27.4078 18.4855 28.0328 17.8299 28.7875 17.3599C28.3081 16.6664 27.6756 16.0956 26.9403 15.6929C26.205 15.2903 25.3871 15.0669 24.5517 15.0404C22.7695 14.8509 21.0417 16.1206 20.1336 16.1206C19.2078 16.1206 17.8096 15.0592 16.3039 15.0906C15.3299 15.1225 14.3807 15.4093 13.5488 15.9232C12.7169 16.4372 12.0306 17.1606 11.5567 18.023C9.50416 21.6226 11.0352 26.9127 13.0014 29.8223C13.9851 31.2471 15.1348 32.8386 16.6391 32.7821C18.1112 32.7203 18.661 31.8313 20.438 31.8313C22.1984 31.8313 22.7142 32.7821 24.2491 32.7462C25.8287 32.7203 26.824 31.3152 27.7732 29.8769C28.48 28.8617 29.0239 27.7397 29.3847 26.5525C28.467 26.1593 27.6838 25.5012 27.1329 24.6603C26.5819 23.8193 26.2876 22.8327 26.2865 21.8234Z" fill="white"/>
<path d="M23.387 13.1267C24.2483 12.0794 24.6726 10.7333 24.5698 9.37427C23.254 9.51425 22.0385 10.1513 21.1656 11.1583C20.7388 11.6503 20.4119 12.2227 20.2037 12.8427C19.9954 13.4628 19.9098 14.1183 19.9518 14.7718C20.6099 14.7787 21.2611 14.6342 21.8561 14.3492C22.4511 14.0643 22.9746 13.6463 23.387 13.1267Z" fill="white"/>
<path d="M44.8949 29.175H39.8713L38.6649 32.7832H36.5371L41.2954 19.4338H43.5061L48.2643 32.7832H46.1002L44.8949 29.175ZM40.3916 27.51H44.3736L42.4106 21.6542H42.3557L40.3916 27.51Z" fill="white"/>
<path d="M58.5414 27.9175C58.5414 30.942 56.9432 32.8852 54.5315 32.8852C53.9205 32.9176 53.3129 32.775 52.7782 32.4739C52.2436 32.1727 51.8034 31.7252 51.5082 31.1824H51.4626V36.0031H49.4902V23.0507H51.3994V24.6694H51.4356C51.7444 24.1293 52.192 23.684 52.7308 23.3811C53.2695 23.0781 53.8793 22.9287 54.4952 22.9488C56.9339 22.9488 58.5414 24.9015 58.5414 27.9175ZM56.5141 27.9175C56.5141 25.9471 55.5088 24.6516 53.9749 24.6516C52.4679 24.6516 51.4543 25.9744 51.4543 27.9175C51.4543 29.8786 52.4679 31.1919 53.9749 31.1919C55.5088 31.1919 56.5141 29.9059 56.5141 27.9175Z" fill="white"/>
<path d="M69.1156 27.9175C69.1156 30.942 67.5175 32.8852 65.1057 32.8852C64.4947 32.9176 63.8871 32.775 63.3525 32.4739C62.8178 32.1727 62.3776 31.7252 62.0824 31.1824H62.0368V36.0031H60.0645V23.0506H61.9735V24.6694H62.0098C62.3186 24.1293 62.7662 23.684 63.305 23.3811C63.8437 23.0781 64.4535 22.9287 65.0694 22.9488C67.5081 22.9488 69.1156 24.9014 69.1156 27.9175ZM67.0884 27.9175C67.0884 25.9471 66.083 24.6516 64.5491 24.6516C63.0421 24.6516 62.0285 25.9743 62.0285 27.9175C62.0285 29.8786 63.0421 31.1919 64.5491 31.1919C66.083 31.1919 67.0884 29.9059 67.0884 27.9175H67.0884Z" fill="white"/>
<path d="M76.1069 29.0638C76.253 30.3876 77.5227 31.2568 79.2576 31.2568C80.9201 31.2568 82.1161 30.3875 82.1161 29.1939C82.1161 28.1577 81.3948 27.5373 79.6867 27.1121L77.9787 26.6954C75.5586 26.1033 74.4351 24.9569 74.4351 23.0966C74.4351 20.7934 76.4168 19.2113 79.2307 19.2113C82.0156 19.2113 83.9247 20.7934 83.9889 23.0966H81.9979C81.8788 21.7644 80.7915 20.9603 79.2027 20.9603C77.6138 20.9603 76.5266 21.7739 76.5266 22.9581C76.5266 23.9018 77.221 24.4572 78.9197 24.8823L80.3718 25.2435C83.0758 25.8912 84.1993 26.9914 84.1993 28.944C84.1993 31.4415 82.2353 33.0057 79.1115 33.0057C76.1887 33.0057 74.2154 31.4782 74.0879 29.0637L76.1069 29.0638Z" fill="white"/>
<path d="M88.4549 20.7472V23.0505H90.2822V24.6325H88.4549V29.9981C88.4549 30.8316 88.8208 31.22 89.624 31.22C89.8409 31.2162 90.0575 31.2008 90.2728 31.1738V32.7464C89.9117 32.8148 89.5446 32.8457 89.1773 32.8388C87.2319 32.8388 86.4733 32.0987 86.4733 30.2111V24.6325H85.0762V23.0505H86.4732V20.7472H88.4549Z" fill="white"/>
<path d="M91.3398 27.9174C91.3398 24.8551 93.1204 22.9308 95.897 22.9308C98.683 22.9308 100.455 24.855 100.455 27.9174C100.455 30.988 98.6923 32.9039 95.897 32.9039C93.1028 32.9039 91.3398 30.988 91.3398 27.9174ZM98.4456 27.9174C98.4456 25.8167 97.4952 24.5769 95.897 24.5769C94.2988 24.5769 93.3495 25.8261 93.3495 27.9174C93.3495 30.0264 94.2988 31.2568 95.897 31.2568C97.4952 31.2568 98.4456 30.0264 98.4456 27.9174H98.4456Z" fill="white"/>
<path d="M102.082 23.0506H103.963V24.7071H104.009C104.136 24.1898 104.435 23.7325 104.856 23.4123C105.277 23.0921 105.794 22.9284 106.32 22.9487C106.547 22.9479 106.774 22.9729 106.996 23.0233V24.8919C106.709 24.8031 106.41 24.7623 106.11 24.7712C105.823 24.7594 105.537 24.8106 105.272 24.9212C105.007 25.0318 104.769 25.1992 104.573 25.4119C104.378 25.6247 104.231 25.8777 104.141 26.1536C104.052 26.4295 104.022 26.7218 104.054 27.0104V32.7833H102.082L102.082 23.0506Z" fill="white"/>
<path d="M116.09 29.9246C115.824 31.6914 114.126 32.9039 111.952 32.9039C109.157 32.9039 107.422 31.0069 107.422 27.9635C107.422 24.9107 109.166 22.9308 111.869 22.9308C114.528 22.9308 116.199 24.7805 116.199 27.7315V28.416H109.413V28.5367C109.382 28.8949 109.426 29.2558 109.543 29.5953C109.66 29.9348 109.847 30.2453 110.091 30.506C110.336 30.7667 110.632 30.9718 110.961 31.1076C111.289 31.2434 111.643 31.3067 111.998 31.2935C112.464 31.3378 112.932 31.2284 113.331 30.9818C113.731 30.7351 114.042 30.3643 114.217 29.9246L116.09 29.9246ZM109.422 27.0198H114.226C114.244 26.6977 114.196 26.3754 114.084 26.0731C113.973 25.7708 113.802 25.495 113.58 25.2631C113.359 25.0311 113.093 24.848 112.798 24.7252C112.504 24.6025 112.188 24.5427 111.869 24.5496C111.548 24.5476 111.23 24.6101 110.932 24.7335C110.635 24.8568 110.365 25.0386 110.138 25.2682C109.91 25.4979 109.73 25.7709 109.607 26.0715C109.484 26.3722 109.421 26.6944 109.422 27.0198V27.0198Z" fill="white"/>
<path d="M40.1448 9.3857C40.5583 9.35564 40.9732 9.41891 41.3597 9.57096C41.7461 9.723 42.0944 9.96001 42.3795 10.2649C42.6645 10.5698 42.8792 10.935 43.0081 11.3341C43.1369 11.7332 43.1767 12.1563 43.1245 12.5729C43.1245 14.6221 42.0311 15.8001 40.1448 15.8001H37.8574V9.3857H40.1448ZM38.841 14.8929H40.035C40.3304 14.9108 40.6261 14.8617 40.9005 14.7493C41.1749 14.6368 41.4211 14.4638 41.6211 14.2428C41.8212 14.0218 41.9701 13.7585 42.0569 13.4718C42.1438 13.1852 42.1665 12.8826 42.1234 12.586C42.1634 12.2905 42.1384 11.9898 42.0502 11.7053C41.962 11.4207 41.8127 11.1595 41.6131 10.9403C41.4135 10.7211 41.1685 10.5493 40.8957 10.4372C40.6228 10.3252 40.3289 10.2756 40.035 10.2921H38.841V14.8929Z" fill="white"/>
<path d="M44.2353 13.3776C44.2052 13.0595 44.2412 12.7385 44.3407 12.4353C44.4403 12.1321 44.6014 11.8533 44.8136 11.6168C45.0258 11.3803 45.2845 11.1913 45.573 11.0621C45.8615 10.9328 46.1735 10.866 46.489 10.866C46.8045 10.866 47.1165 10.9328 47.405 11.0621C47.6935 11.1913 47.9522 11.3803 48.1644 11.6168C48.3766 11.8533 48.5376 12.1321 48.6372 12.4353C48.7368 12.7385 48.7727 13.0595 48.7427 13.3776C48.7733 13.696 48.7378 14.0174 48.6385 14.3211C48.5392 14.6248 48.3782 14.9042 48.1659 15.1411C47.9537 15.378 47.6948 15.5674 47.406 15.697C47.1172 15.8265 46.8049 15.8935 46.489 15.8935C46.1731 15.8935 45.8607 15.8265 45.5719 15.697C45.2831 15.5674 45.0243 15.378 44.812 15.1411C44.5998 14.9042 44.4388 14.6248 44.3395 14.3211C44.2402 14.0174 44.2047 13.696 44.2353 13.3776ZM47.7726 13.3776C47.7726 12.3283 47.3072 11.7147 46.4905 11.7147C45.6707 11.7147 45.2095 12.3283 45.2095 13.3776C45.2095 14.4353 45.6708 15.0441 46.4905 15.0441C47.3073 15.0441 47.7726 14.4311 47.7726 13.3776H47.7726Z" fill="white"/>
<path d="M54.7345 15.8H53.7561L52.7684 12.2349H52.6938L51.7102 15.8H50.7411L49.4238 10.9594H50.3805L51.2365 14.6531H51.307L52.2896 10.9594H53.1944L54.1769 14.6531H54.2515L55.1035 10.9594H56.0466L54.7345 15.8Z" fill="white"/>
<path d="M57.1543 10.9595H58.0622V11.7285H58.1327C58.2523 11.4523 58.4539 11.2208 58.7095 11.0662C58.9652 10.9116 59.2621 10.8417 59.5588 10.8661C59.7914 10.8484 60.0248 10.8839 60.242 10.97C60.4591 11.0561 60.6544 11.1906 60.8132 11.3635C60.9721 11.5364 61.0905 11.7433 61.1597 11.9689C61.2289 12.1944 61.2471 12.4329 61.213 12.6665V15.8001H60.2698V12.9064C60.2698 12.1285 59.9361 11.7416 59.2386 11.7416C59.0807 11.7342 58.9231 11.7614 58.7766 11.8214C58.63 11.8814 58.4981 11.9728 58.3897 12.0894C58.2813 12.2059 58.1991 12.3447 58.1486 12.4965C58.0982 12.6482 58.0807 12.8091 58.0974 12.9683V15.8002H57.1543L57.1543 10.9595Z" fill="white"/>
<path d="M62.7168 9.06982H63.6599V15.8001H62.7168V9.06982Z" fill="white"/>
<path d="M64.9696 13.3778C64.9396 13.0597 64.9755 12.7387 65.0752 12.4354C65.1748 12.1322 65.3359 11.8534 65.5481 11.6169C65.7603 11.3804 66.019 11.1915 66.3075 11.0622C66.5961 10.9329 66.9081 10.8661 67.2236 10.8661C67.5391 10.8661 67.8511 10.9329 68.1397 11.0622C68.4282 11.1915 68.6869 11.3804 68.8991 11.6169C69.1113 11.8534 69.2724 12.1322 69.372 12.4354C69.4716 12.7387 69.5076 13.0597 69.4776 13.3778C69.5082 13.6962 69.4726 14.0176 69.3733 14.3214C69.2739 14.6251 69.1129 14.9044 68.9006 15.1413C68.6884 15.3782 68.4295 15.5676 68.1407 15.6972C67.8519 15.8267 67.5395 15.8937 67.2236 15.8937C66.9077 15.8937 66.5953 15.8267 66.3065 15.6972C66.0177 15.5676 65.7588 15.3782 65.5466 15.1413C65.3343 14.9044 65.1733 14.6251 65.0739 14.3214C64.9746 14.0176 64.939 13.6962 64.9696 13.3778ZM68.507 13.3778C68.507 12.3285 68.0416 11.7149 67.2249 11.7149C66.4051 11.7149 65.9439 12.3285 65.9439 13.3778C65.9439 14.4355 66.4051 15.0444 67.2249 15.0444C68.0416 15.0443 68.507 14.4313 68.507 13.3778H68.507Z" fill="white"/>
<path d="M70.4707 14.4313C70.4707 13.56 71.1112 13.0577 72.2482 12.9863L73.5427 12.9107V12.4929C73.5427 11.9816 73.209 11.6929 72.5643 11.6929C72.0378 11.6929 71.673 11.8887 71.5683 12.231H70.6552C70.7516 11.3995 71.5237 10.8662 72.6078 10.8662C73.8059 10.8662 74.4817 11.4704 74.4817 12.4929V15.8003H73.5738V15.12H73.4992C73.3477 15.364 73.135 15.563 72.8828 15.6965C72.6306 15.83 72.348 15.8934 72.0637 15.88C71.8631 15.9012 71.6603 15.8795 71.4685 15.8164C71.2766 15.7533 71.1 15.6502 70.9499 15.5137C70.7998 15.3772 70.6796 15.2104 70.5971 15.0239C70.5145 14.8375 70.4715 14.6356 70.4707 14.4313ZM73.5427 14.0177V13.613L72.3757 13.6886C71.7175 13.7332 71.419 13.96 71.419 14.3867C71.419 14.8224 71.7921 15.0759 72.3052 15.0759C72.4556 15.0913 72.6074 15.0759 72.7517 15.0307C72.8961 14.9855 73.03 14.9113 73.1454 14.8125C73.2609 14.7138 73.3556 14.5926 73.4238 14.456C73.492 14.3195 73.5325 14.1704 73.5427 14.0177Z" fill="white"/>
<path d="M75.7227 13.3777C75.7227 11.8482 76.4989 10.8792 77.7064 10.8792C78.0051 10.8652 78.3015 10.9377 78.561 11.0881C78.8205 11.2385 79.0324 11.4606 79.1719 11.7284H79.2424V9.06982H80.1855V15.8001H79.2818V15.0353H79.2071C79.0569 15.3014 78.8376 15.5207 78.573 15.6696C78.3085 15.8185 78.0088 15.8912 77.7064 15.8799C76.4907 15.8799 75.7227 14.911 75.7227 13.3777ZM76.6969 13.3777C76.6969 14.4044 77.1747 15.0222 77.9738 15.0222C78.7687 15.0222 79.26 14.3955 79.26 13.3819C79.26 12.3731 78.7636 11.7374 77.9738 11.7374C77.1799 11.7374 76.6969 12.3594 76.6969 13.3777H76.6969Z" fill="white"/>
<path d="M84.0868 13.3776C84.0568 13.0595 84.0927 12.7385 84.1923 12.4353C84.2919 12.1321 84.453 11.8533 84.6652 11.6168C84.8774 11.3803 85.136 11.1913 85.4245 11.0621C85.713 10.9328 86.0251 10.866 86.3405 10.866C86.656 10.866 86.968 10.9328 87.2566 11.0621C87.5451 11.1913 87.8037 11.3803 88.0159 11.6168C88.2281 11.8533 88.3892 12.1321 88.4888 12.4353C88.5884 12.7385 88.6243 13.0595 88.5943 13.3776C88.6249 13.696 88.5894 14.0174 88.49 14.3211C88.3907 14.6248 88.2297 14.9042 88.0175 15.1411C87.8052 15.378 87.5464 15.5674 87.2576 15.697C86.9688 15.8265 86.6564 15.8935 86.3405 15.8935C86.0247 15.8935 85.7123 15.8265 85.4235 15.697C85.1347 15.5674 84.8758 15.378 84.6636 15.1411C84.4513 14.9042 84.2904 14.6248 84.191 14.3211C84.0917 14.0174 84.0562 13.696 84.0868 13.3776ZM87.6241 13.3776C87.6241 12.3283 87.1588 11.7147 86.3421 11.7147C85.5223 11.7147 85.0611 12.3283 85.0611 13.3776C85.0611 14.4353 85.5223 15.0441 86.3421 15.0441C87.1588 15.0441 87.6241 14.4311 87.6241 13.3776Z" fill="white"/>
<path d="M89.8594 10.9595H90.7673V11.7285H90.8378C90.9573 11.4523 91.159 11.2208 91.4146 11.0662C91.6703 10.9116 91.9671 10.8417 92.2639 10.8661C92.4964 10.8484 92.7299 10.8839 92.9471 10.97C93.1642 11.0561 93.3594 11.1906 93.5183 11.3635C93.6771 11.5364 93.7956 11.7433 93.8648 11.9689C93.934 12.1944 93.9522 12.4329 93.918 12.6665V15.8001H92.9749V12.9064C92.9749 12.1285 92.6412 11.7416 91.9436 11.7416C91.7858 11.7342 91.6282 11.7614 91.4816 11.8214C91.3351 11.8814 91.2031 11.9728 91.0948 12.0894C90.9864 12.2059 90.9041 12.3447 90.8537 12.4965C90.8033 12.6482 90.7858 12.8091 90.8025 12.9683V15.8002H89.8594V10.9595Z" fill="white"/>
<path d="M99.2478 9.75427V10.9815H100.283V11.7862H99.2478V14.2753C99.2478 14.7823 99.454 15.0043 99.9235 15.0043C100.044 15.004 100.164 14.9966 100.283 14.9823V15.778C100.114 15.8087 99.9422 15.8251 99.7701 15.8269C98.7213 15.8269 98.3036 15.4531 98.3036 14.5199V11.7861H97.5449V10.9814H98.3036V9.75427H99.2478Z" fill="white"/>
<path d="M101.572 9.06982H102.507V11.7374H102.582C102.707 11.4586 102.914 11.2258 103.175 11.0706C103.436 10.9154 103.737 10.8455 104.039 10.8702C104.27 10.8575 104.501 10.8966 104.716 10.9848C104.931 11.073 105.124 11.2081 105.281 11.3805C105.438 11.5528 105.556 11.7582 105.626 11.982C105.695 12.2057 105.716 12.4423 105.685 12.6749V15.8001H104.741V12.9105C104.741 12.1373 104.385 11.7458 103.719 11.7458C103.557 11.7323 103.394 11.7549 103.241 11.8119C103.088 11.8689 102.95 11.9591 102.835 12.0759C102.721 12.1928 102.633 12.3337 102.577 12.4886C102.522 12.6436 102.501 12.8089 102.515 12.973V15.8001H101.572L101.572 9.06982Z" fill="white"/>
<path d="M111.184 14.4932C111.055 14.9356 110.778 15.3183 110.399 15.5743C110.021 15.8304 109.565 15.9434 109.113 15.8937C108.798 15.9021 108.485 15.841 108.196 15.7147C107.907 15.5883 107.648 15.3997 107.438 15.162C107.228 14.9243 107.071 14.6431 106.979 14.338C106.887 14.0329 106.862 13.7112 106.905 13.3952C106.863 13.0781 106.889 12.7557 106.981 12.4497C107.073 12.1437 107.228 11.8612 107.437 11.6214C107.646 11.3816 107.903 11.1901 108.192 11.0598C108.48 10.9295 108.793 10.8634 109.109 10.8662C110.438 10.8662 111.241 11.7864 111.241 13.3064V13.6398H107.866V13.6933C107.851 13.8709 107.873 14.0497 107.931 14.2183C107.988 14.3868 108.08 14.5412 108.199 14.6718C108.319 14.8024 108.465 14.9061 108.626 14.9764C108.788 15.0467 108.963 15.082 109.139 15.0801C109.364 15.1075 109.593 15.0663 109.795 14.9618C109.998 14.8573 110.165 14.6942 110.276 14.4932L111.184 14.4932ZM107.866 12.9332H110.28C110.292 12.7708 110.27 12.6076 110.216 12.4542C110.162 12.3007 110.076 12.1605 109.966 12.0424C109.855 11.9243 109.721 11.831 109.572 11.7684C109.424 11.7059 109.264 11.6755 109.103 11.6792C108.94 11.6772 108.778 11.7082 108.627 11.7705C108.476 11.8328 108.339 11.9251 108.224 12.0419C108.108 12.1588 108.017 12.2979 107.956 12.451C107.894 12.604 107.864 12.768 107.866 12.9332H107.866Z" fill="white"/>
</g>
<defs>
<clipPath id="clip0">
<rect width="127" height="43" fill="white"/>
</clipPath>
</defs>
</svg>
