<svg width="18" height="22" viewBox="0 0 18 22" fill="none" xmlns="http://www.w3.org/2000/svg">
<path d="M12.1759 0.12706C12.075 0.0208131 11.9367 -0.0429688 11.7933 -0.0429688H3.21114C1.62751 -0.0429688 0.320312 1.25902 0.320312 2.84249V19.0714C0.320312 20.6551 1.62751 21.9571 3.21114 21.9571H14.8594C16.443 21.9571 17.7502 20.6551 17.7502 19.0714V6.18499C17.7502 6.04686 17.6864 5.91409 17.5961 5.81304L12.1759 0.12706ZM12.3299 1.83289L15.9595 5.64302H13.6C12.8986 5.64302 12.3299 5.07972 12.3299 4.37829V1.83289ZM14.8594 20.8943H3.21114C2.21749 20.8943 1.38312 20.0706 1.38312 19.0714V2.84249C1.38312 1.84883 2.21212 1.01984 3.21114 1.01984H11.2671V4.37829C11.2671 5.66954 12.3088 6.70582 13.6 6.70582H16.6874V19.0714C16.6874 20.0706 15.8584 20.8943 14.8594 20.8943Z" fill="black"/>
<path d="M13.4091 17.2277H4.66226C4.37004 17.2277 4.13086 17.4667 4.13086 17.7591C4.13086 18.0513 4.37004 18.2905 4.66226 18.2905H13.4145C13.7067 18.2905 13.9459 18.0513 13.9459 17.7591C13.9459 17.4667 13.7067 17.2277 13.4091 17.2277Z" fill="black"/>
<path d="M8.64773 15.3199C8.74877 15.4262 8.88691 15.49 9.03563 15.49C9.18451 15.49 9.32264 15.4262 9.42352 15.3199L12.5376 11.9774C12.7395 11.7648 12.7236 11.4247 12.5111 11.2282C12.2984 11.0263 11.9583 11.042 11.7618 11.2547L9.56703 13.6087V7.80594C9.56703 7.51355 9.32785 7.27454 9.03563 7.27454C8.7434 7.27454 8.50422 7.51355 8.50422 7.80594V13.6087L6.31483 11.2547C6.11291 11.0422 5.77805 11.0263 5.56556 11.2282C5.35306 11.4301 5.33712 11.7649 5.53904 11.9774L8.64773 15.3199Z" fill="black"/>
</svg>
