<svg width="40" height="40" viewBox="0 0 40 40" fill="none" xmlns="http://www.w3.org/2000/svg">
<path d="M20 40C31.0457 40 40 31.0457 40 20C40 8.95433 31.0457 0 20 0C8.95433 0 0 8.95433 0 20C0 31.0457 8.95433 40 20 40Z" fill="url(#paint0_linear)"/>
<path d="M7.44869 20.9782C9.78667 19.6904 12.3965 18.6156 14.835 17.5352C19.0302 15.7657 23.242 14.0269 27.4963 12.4081C28.3241 12.1322 29.8113 11.8625 29.9572 13.0891C29.8773 14.8255 29.5488 16.5516 29.3235 18.2778C28.7516 22.0738 28.0906 25.8568 27.446 29.6403C27.2239 30.9006 25.6452 31.553 24.635 30.7465C22.2073 29.1066 19.761 27.4828 17.3643 25.805C16.5793 25.0072 17.3073 23.8616 18.0084 23.292C20.0079 21.3215 22.1284 19.6473 24.0234 17.575C24.5346 16.3406 23.0243 17.3809 22.5261 17.6996C19.7888 19.586 17.1184 21.5875 14.2324 23.2453C12.7583 24.0568 11.0401 23.3633 9.56659 22.9105C8.2454 22.3635 6.30939 21.8124 7.44855 20.9783L7.44869 20.9782Z" fill="white"/>
<defs>
<linearGradient id="paint0_linear" x1="15.0023" y1="1.668" x2="5.00233" y2="25" gradientUnits="userSpaceOnUse">
<stop stop-color="#37AEE2"/>
<stop offset="1" stop-color="#1E96C8"/>
</linearGradient>
</defs>
</svg>
