<svg width="40" height="40" viewBox="0 0 40 40" fill="none" xmlns="http://www.w3.org/2000/svg">
<path d="M20 40C31.0457 40 40 31.0457 40 20C40 8.9543 31.0457 0 20 0C8.9543 0 0 8.9543 0 20C0 31.0457 8.9543 40 20 40Z" fill="#25D366"/>
<path fill-rule="evenodd" clip-rule="evenodd" d="M20.6586 31.127H20.6537C18.6633 31.1263 16.7075 30.6269 14.9705 29.6795L8.66602 31.3333L10.3532 25.1706C9.31246 23.367 8.76483 21.3212 8.76572 19.2251C8.76833 12.668 14.1034 7.33325 20.6585 7.33325C23.8399 7.33463 26.8259 8.57314 29.0712 10.8211C31.3165 13.0689 32.5524 16.0569 32.5511 19.2345C32.5485 25.7901 27.2156 31.1243 20.6586 31.127ZM15.2626 27.5265L15.6235 27.7407C17.1412 28.6413 18.8808 29.1179 20.6546 29.1185H20.6586C26.1067 29.1185 30.5409 24.6842 30.5431 19.2338C30.5441 16.5926 29.517 14.1092 27.6507 12.2407C25.7845 10.3723 23.3027 9.34287 20.6625 9.34195C15.2101 9.34195 10.7758 13.7758 10.7737 19.2258C10.7729 21.0936 11.2955 22.9125 12.285 24.4863L12.52 24.8603L11.5214 28.5079L15.2626 27.5265ZM26.243 21.795C26.4503 21.8951 26.5902 21.9628 26.65 22.0625C26.7242 22.1864 26.7242 22.7814 26.4767 23.4756C26.229 24.1697 25.0419 24.8033 24.4709 24.8885C23.959 24.9651 23.3111 24.997 22.5993 24.7708C22.1677 24.6339 21.6142 24.451 20.9053 24.1448C18.1195 22.9419 16.2369 20.2419 15.881 19.7316C15.8561 19.6959 15.8387 19.6709 15.829 19.6579L15.8266 19.6547C15.6693 19.4449 14.6156 18.039 14.6156 16.5839C14.6156 15.2151 15.288 14.4977 15.5975 14.1674C15.6187 14.1448 15.6382 14.124 15.6556 14.1049C15.928 13.8074 16.2499 13.7331 16.448 13.7331C16.6461 13.7331 16.8444 13.7349 17.0176 13.7436C17.0389 13.7447 17.0611 13.7445 17.0841 13.7444C17.2573 13.7434 17.4732 13.7421 17.6861 14.2537C17.7681 14.4505 17.888 14.7424 18.0144 15.0502C18.2701 15.6727 18.5526 16.3606 18.6023 16.4601C18.6766 16.6089 18.7262 16.7823 18.6271 16.9807C18.6122 17.0105 18.5985 17.0385 18.5854 17.0654C18.511 17.2173 18.4562 17.329 18.33 17.4764C18.2803 17.5344 18.229 17.5969 18.1777 17.6594C18.0755 17.7839 17.9732 17.9084 17.8842 17.997C17.7355 18.1452 17.5806 18.306 17.7539 18.6035C17.9273 18.901 18.5236 19.874 19.407 20.662C20.3566 21.509 21.182 21.867 21.6003 22.0485C21.682 22.0839 21.7482 22.1126 21.7967 22.1369C22.0938 22.2857 22.2671 22.2608 22.4405 22.0625C22.6138 21.8642 23.1833 21.1948 23.3814 20.8974C23.5794 20.6 23.7776 20.6495 24.0499 20.7486C24.3224 20.8479 25.7833 21.5667 26.0805 21.7154C26.1385 21.7445 26.1927 21.7707 26.243 21.795Z" fill="#FDFDFD"/>
</svg>
